<svg height="512" viewBox="0 0 256 256" width="512" xmlns="http://www.w3.org/2000/svg"><path d="m44.565 99.771a74.982 74.982 0 0 1 149.964 0v4.039c-.519 4.305-.942 7.827-.94 7.826s1.939 3.842 4.3 8.54l12.627 25.084c2.365 4.7 0 8.541-5.263 8.541h-2.1a9.59 9.59 0 0 0 -9.562 9.562v25.865a9.59 9.59 0 0 1 -9.562 9.562h-16.106a9.59 9.59 0 0 0 -9.562 9.562v1.54a9.59 9.59 0 0 1 -9.562 9.562h-73.28a9.59 9.59 0 0 1 -9.562-9.562v-48.136a37.135 37.135 0 0 0 -5.313-17.513s-16.079-24.063-16.079-44.472z" fill="#63bce7"/><path d="m210.518 145.261-12.627-25.084c-2.365-4.7-4.3-8.541-4.3-8.54s.421-3.521.94-7.826v-4.04a74.864 74.864 0 0 0 -84.231-74.393 74.979 74.979 0 0 1 65.732 74.393v4.039c-.519 4.305-.942 7.827-.94 7.826s1.938 3.842 4.3 8.54l12.627 25.084c2.365 4.7 0 8.541-5.263 8.541h-2.1a9.59 9.59 0 0 0 -9.562 9.562v25.865a9.59 9.59 0 0 1 -9.562 9.562h-16.109a9.59 9.59 0 0 0 -9.562 9.562v1.54a9.59 9.59 0 0 1 -9.562 9.562h18.5a9.59 9.59 0 0 0 9.562-9.562v-1.54a9.59 9.59 0 0 1 9.562-9.562h16.107a9.59 9.59 0 0 0 9.562-9.562v-25.863a9.59 9.59 0 0 1 9.562-9.562h2.1c5.261-.003 7.629-3.844 5.264-8.542z" fill="#63e2e7"/><path d="m84.457 209.894v-48.138a37.135 37.135 0 0 0 -5.313-17.513s-16.079-24.063-16.079-44.472a74.979 74.979 0 0 1 65.735-74.393 74.864 74.864 0 0 0 -84.235 74.393c0 20.409 16.079 44.472 16.079 44.472a37.135 37.135 0 0 1 5.313 17.513v48.138a9.59 9.59 0 0 0 9.562 9.562h18.5a9.59 9.59 0 0 1 -9.562-9.562z" fill="#6377e7"/><path d="m79 110.712c.421 1.174.9 2.3 1.417 3.422l-10.52 10.52 20.682 20.686 10.52-10.52c1.118.52 2.259 1 3.422 1.418v14.883h29.247v-14.884c1.163-.421 2.3-.9 3.422-1.418l10.52 10.52 20.69-20.685-10.52-10.52c.52-1.118 1-2.248 1.417-3.422h14.884v-29.247h-14.888c-.421-1.163-.9-2.3-1.417-3.422l10.52-10.52-20.686-20.686-10.52 10.531c-1.118-.52-2.259-1.008-3.422-1.429v-14.872h-29.247v14.872c-1.163.421-2.3.908-3.422 1.429l-10.52-10.531-20.687 20.686 10.52 10.52c-.52 1.118-1 2.259-1.417 3.422h-14.872v29.246z" fill="#f8af23"/><circle cx="119.15" cy="96.094" fill="#9e9e9e" r="33.204"/><rect fill="#f46275" height="56.892" rx="8.435" width="20.746" x="108.777" y="141.666"/><path d="m119.15 74.851v21.243h-21.243a21.243 21.243 0 1 0 21.243-21.243z" fill="#63bce7"/><path d="m119.15 74.851a21.243 21.243 0 0 0 -21.243 21.243h21.243z" fill="#f46275"/><g fill="#3f3679"><path d="m169.9 124.654a1.5 1.5 0 0 0 -.439-1.061l-9.787-9.787c.238-.543.458-1.073.663-1.6h13.844a1.5 1.5 0 0 0 1.5-1.5v-29.241a1.5 1.5 0 0 0 -1.5-1.5h-13.85q-.311-.793-.661-1.594l9.787-9.788a1.5 1.5 0 0 0 0-2.121l-20.687-20.686a1.543 1.543 0 0 0 -2.122 0l-9.786 9.8c-.55-.243-1.08-.465-1.6-.669v-13.84a1.5 1.5 0 0 0 -1.5-1.5h-29.241a1.5 1.5 0 0 0 -1.5 1.5v13.833c-.516.2-1.045.426-1.6.669l-9.786-9.8a1.5 1.5 0 0 0 -1.061-.44 1.5 1.5 0 0 0 -1.061.439l-20.681 20.694a1.5 1.5 0 0 0 0 2.121l9.787 9.788q-.35.8-.661 1.594h-13.835a1.5 1.5 0 0 0 -1.5 1.5v29.246a1.5 1.5 0 0 0 1.5 1.5h13.833c.2.522.424 1.052.663 1.6l-9.787 9.787a1.5 1.5 0 0 0 0 2.121l20.686 20.681a1.5 1.5 0 0 0 2.121 0l9.788-9.787q.8.35 1.594.661v13.846a1.5 1.5 0 0 0 1.5 1.5h2.756v37.5a9.947 9.947 0 0 0 9.935 9.935h3.875a9.947 9.947 0 0 0 9.935-9.935v-37.5h2.745a1.5 1.5 0 0 0 1.5-1.5v-13.845c.528-.207 1.061-.428 1.594-.662l9.787 9.788a1.544 1.544 0 0 0 2.121 0l20.687-20.687a1.5 1.5 0 0 0 .444-1.06zm-41.874 65.47a6.943 6.943 0 0 1 -6.935 6.935h-3.875a6.943 6.943 0 0 1 -6.935-6.935v-40.024a6.943 6.943 0 0 1 6.935-6.935h3.875a6.943 6.943 0 0 1 6.935 6.935zm-8.876-62.324a31.7 31.7 0 1 1 31.7-31.7 31.74 31.74 0 0 1 -31.7 31.7zm28.56 15.421-9.459-9.459a1.5 1.5 0 0 0 -1.693-.3c-1.108.516-2.218.976-3.3 1.367a1.5 1.5 0 0 0 -.989 1.411v13.383h-1.269a9.939 9.939 0 0 0 -9.911-9.455h-.437v-9.408a34.7 34.7 0 1 0 -3 0v9.406h-.438a9.939 9.939 0 0 0 -9.911 9.455h-1.28v-13.384a1.5 1.5 0 0 0 -.99-1.411c-1.082-.391-2.192-.851-3.3-1.367a1.5 1.5 0 0 0 -1.693.3l-9.46 9.46-18.566-18.565 9.459-9.459a1.5 1.5 0 0 0 .3-1.693c-.54-1.16-.986-2.238-1.365-3.3a1.5 1.5 0 0 0 -1.408-.991h-13.377v-26.246h13.377a1.5 1.5 0 0 0 1.411-.99c.391-1.082.851-2.192 1.367-3.3a1.5 1.5 0 0 0 -.3-1.693l-9.46-9.46 18.56-18.564 9.46 9.47a1.5 1.5 0 0 0 1.694.3c1.2-.557 2.275-1.007 3.3-1.378a1.5 1.5 0 0 0 .99-1.411v-13.372h26.247v13.372a1.5 1.5 0 0 0 .989 1.411c1.023.37 2.1.821 3.3 1.378a1.5 1.5 0 0 0 1.694-.3l9.459-9.47 18.565 18.564-9.46 9.46a1.5 1.5 0 0 0 -.3 1.693c.516 1.107.976 2.218 1.367 3.3a1.5 1.5 0 0 0 1.411.99h13.384v26.246h-13.385a1.5 1.5 0 0 0 -1.412.994c-.379 1.058-.826 2.136-1.365 3.3a1.5 1.5 0 0 0 .3 1.693l9.459 9.459z"/><path d="m119.15 73.352a22.743 22.743 0 1 0 22.743 22.743 22.769 22.769 0 0 0 -22.743-22.743zm-1.5 3.057v18.185h-18.187a19.772 19.772 0 0 1 18.187-18.186zm1.5 39.429a19.768 19.768 0 0 1 -19.687-18.244h19.687a1.5 1.5 0 0 0 1.5-1.5v-19.686a19.743 19.743 0 0 1 -1.5 39.429z"/><path d="m25.89 229.71h-18.5a1.5 1.5 0 1 0 0 3h18.5a1.5 1.5 0 1 0 0-3z"/><path d="m248.61 229.71h-18.5a1.5 1.5 0 0 0 0 3h18.5a1.5 1.5 0 0 0 0-3z"/><path d="m215.337 229.71h-174.674a1.5 1.5 0 0 0 0 3h174.674a1.5 1.5 0 0 0 0-3z"/><path d="m7.39 220.956h7.944a1.5 1.5 0 1 0 0-3h-7.944a1.5 1.5 0 1 0 0 3z"/><path d="m240.667 220.956h7.944a1.5 1.5 0 0 0 0-3h-7.944a1.5 1.5 0 0 0 0 3z"/><path d="m25.89 220.956h204.22a1.5 1.5 0 0 0 0-3h-73.761a11.021 11.021 0 0 0 3.512-8.062v-1.541a8.071 8.071 0 0 1 8.062-8.062h16.107a11.075 11.075 0 0 0 11.063-11.062v-25.864a8.071 8.071 0 0 1 8.062-8.062h2.1c3.084 0 5.487-1.144 6.768-3.222s1.222-4.739-.165-7.493l-16.59-32.952c-.045-.09-.091-.181-.138-.27.127-1.066.478-3.976.887-7.375a1.473 1.473 0 0 0 .011-.18v-4.04a76.482 76.482 0 1 0 -152.963 0c0 20.626 15.665 44.307 16.332 45.305a35.869 35.869 0 0 1 5.06 16.679v48.138a11.022 11.022 0 0 0 3.512 8.062h-42.079a1.5 1.5 0 0 0 0 3zm41.567-11.062v-48.138a38.807 38.807 0 0 0 -5.565-18.346c-.158-.237-15.826-23.913-15.826-43.638a73.482 73.482 0 1 1 146.963 0v3.949l-.655 5.437c-.315 2.625-.36 3-.01 3.379.438.866 2.154 4.273 4.188 8.314l12.626 25.084c.9 1.79 1 3.413.291 4.571s-2.21 1.8-4.213 1.8h-2.1a11.075 11.075 0 0 0 -11.062 11.063v25.865a8.071 8.071 0 0 1 -8.062 8.062h-16.109a11.075 11.075 0 0 0 -11.062 11.062v1.541a8.071 8.071 0 0 1 -8.062 8.062h-73.28a8.071 8.071 0 0 1 -8.062-8.067z"/></g></svg>