<?xml version="1.0" encoding="utf-8"?>
<!-- Generator: Adobe Illustrator 24.1.1, SVG Export Plug-In . SVG Version: 6.00 Build 0)  -->
<svg version="1.1" id="Layer_1" xmlns="http://www.w3.org/2000/svg" xmlns:xlink="http://www.w3.org/1999/xlink" x="0px" y="0px"
	 viewBox="0 0 512 512" style="enable-background:new 0 0 512 512;" xml:space="preserve">
<g>
	<path d="M248.6,3.8v47h-42v12.3h42v47h14.9v-47h42V50.8h-42v-47H248.6z M377.3,52v69.2h-63.1V141h63.1v68h22.3l0.1-33.7l0.5-33.6
		l31.2-0.5l31.1-0.2v-19.7h-63V52H377.3z M112.6,53.3v68.1H48.8V141h63.7v68.1h21V141h64.2v-19.7h-64.2v-68H112.6z M242.4,165.7
		v76.7h-70.5v25.3h70.5v76.7h27.3v-76.7h70.6v-25.3h-70.6v-76.7H242.4z M449.8,198.7v47.3h-43v17.3h43v48.2h18.9v-48.2H512v-17.3
		h-43.2v-47.3H449.8z M42.1,201.5v46.4H0v13.2h42.1V308h14.3v-46.9H99v-13.2H55.7v-46.4H42.1z M377.3,297.9v69.4h-64.4v19.8h64.4
		v68.6h22.8v-68.6h63.7v-19.8h-63.7v-69.4H377.3z M111.3,298.1v69.2H48.3v19.8h63.1v68.1h23.5v-68.1h63v-19.8h-63V298h-11.7
		L111.3,298.1z M246.1,395.8v47h-42V460h42v48.3h19.8l0.3-23.8l0.3-24.4h42.1v-17.2h-42.7v-47H246.1z"/>
</g>
</svg>
